# xmcd CD database file
#
# Track frame offsets:
#	150
#	20090
#	32725
#	60417
#	76087
#	90917
#	105252
#	121452
#	149650
#	168337
#	191637
#	206677
#	221442
#	235315
#	249087
#	270360
#	299612
#	314215
#
# Disc length: 4370 seconds
#
# Revision: 0
# Processed by: cddbd v1.5.2PL0 Copyright (c) Steve Scherf et al.
# Submitted via: CDex 1.70beta2
#
DISCID=fd111012
DTITLE=憂歌団 - ツイン・ベスト CD2
DYEAR=1900
DGENRE=Blues
TTITLE0=あたしの彼氏
TTITLE1=カントリーガール
TTITLE2=あんな女
TTITLE3=さめた恋
TTITLE4=当たれ！ 宝クジ
TTITLE5=それでいいでしょ
TTITLE6=俺らの家へ
TTITLE7=街のほこり
TTITLE8=ケツに火がついた
TTITLE9=心のなやみ トラディショナル
TTITLE10=コリナ・コリナ トラディショナル
TTITLE11=たくわん
TTITLE12=どてらい女
TTITLE13=PLEASE FIND MY BABY
TTITLE14=金持ちのオッサン
TTITLE15=けだるい二人
TTITLE16=出直しブルース
TTITLE17=お政治オバチャン
EXTD=
EXTT0=
EXTT1=
EXTT2=
EXTT3=
EXTT4=
EXTT5=
EXTT6=
EXTT7=
EXTT8=
EXTT9=
EXTT10=
EXTT11=
EXTT12=
EXTT13=
EXTT14=
EXTT15=
EXTT16=
EXTT17=
PLAYORDER=
